# xmcd CD database file
#
# Track frame offsets:
#	150
#	13323
#	26505
#	41593
#	53932
#	68640
#	82485
#	94998
#	108258
#	120918
#	132257
#	145902
#	157702
#	167487
#	178816
#	190372
#	203221
#	214407
#
# Disc length: 3031 seconds
#
# Revision: 4
# Processed by: cddbd v1.5.2PL0 Copyright (c) Steve Scherf et al.
# Submitted via: CDex 1.51
#
DISCID=020bd512
DTITLE=Stan Getz - Too Marvelous for Words  {1950}
DYEAR=2001
DGENRE=Jazz
TTITLE0=There's A Small Hotel
TTITLE1=Too Marvelous For Words
TTITLE2=Intoit
TTITLE3=My Old Flame
TTITLE4=The Lady In Red
TTITLE5=Wrap Your Troubles In Dreams
TTITLE6=On The Alamo
TTITLE7=Gone With The Wind
TTITLE8=Yesterdays
TTITLE9=Sweetie Pie
TTITLE10=You Go To My Head
TTITLE11=Hershey Bar
TTITLE12=Tootsie Roll
TTITLE13=Strike Up The Band
TTITLE14=Imagination
TTITLE15=For Stompers Only
TTITLE16=Out Of Nowhere
TTITLE17=S' Wonderful
EXTD=Jazz Archives No 185\n YEAR: 2001
EXTT0=Rodgers - Hart\nStan Getz (ts) and Al Haig (p), Tomm Potter (b), Roy Hanes (dm), \nNew York City 06/01/1950
EXTT1=Mercer - Whiting\nStan Getz (ts) and Al Haig (p), Tomm Potter (b), Roy Hanes (dm), \nNew York City 06/01/1950
EXTT2=S. Getz\nStan Getz (ts) and Al Haig (p), Tomm Potter (b), Roy Hanes (dm), \nNew York City 06/01/1950
EXTT3=Johnston - Coslow\nStan Getz (ts) and Tony Aless (p), Percy Heath (b), Don Lamond (dm) \nNew York City 14/04/1950
EXTT4=Dixon Wrubel\nStan Getz (ts) and Tony Aless (p), Percy Heath (b), Don Lamond (dm) \nNew York City 14/04/1950
EXTT5=Barris - Koehler - Moll\nStan Getz (ts) and Tony Aless (p), Percy Heath (b), Don Lamond (dm) \nNew York City 14/04/1950
EXTT6=Jones - G.Kahn - J. Lyons\nStan Getz (ts) and Al Haig (p), Tomm Potter (b), Roy Hanes (dm), \nNew York City 06/01/1950
EXTT7=A. Wrubel - H. Magidson\nStan Getz (ts) and Al Haig (p), Tomm Potter (b), Roy Hanes (dm), \nNew York City 06/01/1950
EXTT8=J. Kern - O. Harbach\nStan Getz (ts) and Al Haig (p), Tomm Potter (b), Roy Hanes (dm), \nNew York City 06/01/1950
EXTT9=J. Jacob - Loeb\nStan Getz (ts) and Al Haig (p), Tomm Potter (b), Roy Hanes (dm), \nNew York City 06/01/1950
EXTT10=F. Coots - H. Gillespie\nStan Getz (ts) and Al Haig (p), Tomm Potter (b), Roy Hanes (dm), \nNew York City 06/01/1950
EXTT11=J. Mandell\nStan Getz (ts) and Al Haig (p), Tomm Potter (b), Roy Hanes (dm), \nNew York City 06/01/1950
EXTT12=S. Gets\nStan Getz (ts) and Horace Silver (p), Joe Calloway (b), Walter Bolden (dm]\nNew York City 10/12/1950
EXTT13=G. and I .Gershwin\nStan Getz (ts) and Horace Silver (p), Joe Calloway (b), Walter Bolden (dm]\nNew York City 10/12/1950
EXTT14=J Van Heusen - J. Burke\nStan Getz (ts) and Horace Silver (p), Joe Calloway (b), Walter Bolden (dm]\nNew York City 10/12/1950
EXTT15=S. getz\nStan Getz (ts) and Horace Silver (p), Joe Calloway (b), Walter Bolden (dm]\nNew York City 10/12/1950
EXTT16=J. Green - E. Heyman\nStan Getz (ts) and Horace Silver (p), Joe Calloway (b), Walter Bolden (dm]\nNew York City 10/12/1950
EXTT17=G. and I. Gershwin\nStan Getz (ts) and Horace Silver (p), Joe Calloway (b), Walter Bolden (dm]\nNew York City 10/12/1950
PLAYORDER=
